<svg width="28" height="28" viewBox="0 0 28 28" fill="none" xmlns="http://www.w3.org/2000/svg">
<path fill-rule="evenodd" clip-rule="evenodd" d="M0.000976562 0.00109863H27.9988V27.9989H0.000976562V0.00109863ZM20.317 5.45601C18.5394 3.37368 16.4336 2.33252 13.9995 2.33252C12.3934 2.33252 10.843 2.84793 9.34834 3.87874C7.00499 5.72143 5.83331 8.01193 5.83331 10.7503C5.83318 12.5514 6.41393 14.2953 7.57557 15.982C9.46432 18.1059 11.5097 19.1678 13.7117 19.1678H14.1661C16.1864 19.1678 17.8177 18.5743 19.0599 17.3873V18.9021L18.9689 19.5268C17.8681 21.5674 16.2116 22.5876 13.9995 22.5876C12.1512 22.5879 10.611 21.7914 9.37886 20.1981C8.9748 19.0736 8.4142 18.5114 7.69706 18.5114H7.48498C6.53549 18.7299 6.06074 19.2193 6.06074 19.9795V20.1512C6.06074 20.4322 6.25266 20.906 6.6365 21.5724C8.5758 24.3001 11.0302 25.664 13.9997 25.664C15.737 25.6639 17.3985 25.1277 18.9843 24.0555C21.065 22.4112 22.1053 20.855 22.1053 19.387V12.3742L22.1654 10.4064C22.1654 8.84492 21.5492 7.19478 20.317 5.45601ZM8.93916 10.8589V10.5783C8.93903 10.0685 9.04005 9.50626 9.24221 8.89167C10.2924 6.65319 11.8429 5.53395 13.8936 5.53395H14.1057C14.4793 5.53422 15.0146 5.6175 15.7117 5.78381C17.9438 6.85643 19.0599 8.47017 19.0599 10.625V10.9837C19.0596 11.3586 18.9788 11.8844 18.8175 12.561C17.7669 14.8307 16.2165 15.9656 14.1661 15.9656H13.8329C13.3583 15.9657 12.833 15.8772 12.2573 15.7001C10.0452 14.6381 8.93916 13.0244 8.93916 10.8589Z" fill="#2D3E50"/>
</svg>
